# xmcd
# 
# Track frame offsets:
#     182
#     18397
#     32047
#     47162
#     59357
#     74807
#     88687
#     107395
#     125212
#     138935
#     155032
#     169757
#     183182
#     196270
#     211270
#     232555
# 
# Disc length: 3401
# 
# Revision: 4
# Processed by: cddbd v1.5.2PL0 Copyright (c) Steve Scherf et al.
# Submitted via: BonkEnc v1.0
# 
DISCID=db0d4710
DTITLE=Mike Brant - Master Serie
DYEAR=1987
DGENRE=Chanson
TTITLE0=My way
TTITLE1=En plein coeur de ta jeunesse
TTITLE2=On se retrouve par hasard
TTITLE3=Qui pourra te dire
TTITLE4=L'oiseau noir et l'oiseau blanc
TTITLE5=Attendez
TTITLE6=Malaguena
TTITLE7=Dis-lui (Feelings)
TTITLE8=Que tu es belle
TTITLE9=Serre les poings et bats-toi
TTITLE10=Donne un peu de toi
TTITLE11=Je vis la vie que j'ai choisie
TTITLE12=Elle a gardé ses yeux d'enfant
TTITLE13=C'est comme ça que je t'aime
TTITLE14=Toutes les couleurs
TTITLE15=Summertime
EXTD=
EXTT0=
EXTT1=
EXTT2=
EXTT3=
EXTT4=
EXTT5=
EXTT6=
EXTT7=
EXTT8=
EXTT9=
EXTT10=
EXTT11=
EXTT12=
EXTT13=
EXTT14=
EXTT15=
PLAYORDER=
